<?xml version="1.0" encoding="UTF-8"?>
<svg id="Layer_1" xmlns="http://www.w3.org/2000/svg" version="1.1" viewBox="0 0 164.96 61.11">
  <!-- Generator: Adobe Illustrator 30.4.0, SVG Export Plug-In . SVG Version: 2.1.4 Build 226)  -->
  <defs>
    <style>
      .st0 {
        fill: #e0e0e0;
      }
    </style>
  </defs>
  <path class="st0" d="M59.34,50.73c0,4.61.22,7.06,3.17,7.06v.43h-16.42v-.43c2.95,0,3.17-2.45,3.17-7.06v-17.28c0-4.97-.86-8.35-5.54-8.35-2.02,0-4.68.79-6.62,2.23.22,1.08.29,2.23.29,3.53v19.87c0,4.61.22,7.06,3.17,7.06v.43h-16.42v-.43c2.95,0,3.17-2.45,3.17-7.06v-17.28c0-4.97-.94-8.35-5.54-8.35-2.02,0-4.54.72-6.41,2.09v23.55c0,4.61.22,7.06,3.17,7.06v.43H2.09v-.43c2.95,0,3.17-2.45,3.17-7.06v-20.59c0-4.61-1.22-5.9-3.67-6.77v-.43l13.46-3.17h.29v6.7c3.24-3.6,7.7-6.84,12.6-6.84s7.99,2.52,9,7.13c3.31-3.67,7.99-7.13,13.03-7.13,6.19,0,9.36,4.03,9.36,11.23v19.87h0Z"/>
  <path class="st0" d="M64.59,58.21v-.43c2.95,0,3.17-2.45,3.17-7.06v-20.59c0-4.61-1.22-5.9-3.67-6.77v-.43l13.46-3.17h.29v30.96c0,4.61.22,7.06,3.17,7.06v.43s-16.42,0-16.42,0ZM66.61,9.11c0-3.1,2.52-5.69,5.76-5.69s5.69,2.59,5.69,5.69-2.59,5.76-5.69,5.76-5.76-2.52-5.76-5.76Z"/>
  <path class="st0" d="M123.06,47.56c-3.67,7.2-7.99,11.52-12.67,11.52-5.04,0-4.9-4.97-3.96-9.22l3.96-17.71c.72-2.95,1.37-6.26-.72-6.26-4.25,0-12.75,15.05-16.49,32.33h-9.94l6.12-29.02c.29-1.37.65-3.17-.43-3.17-.79,0-2.38,1.51-4.54,4.03l-.36-.29c2.95-6.05,7.13-10.15,11.52-10.15,5.11,0,4.82,4.97,3.89,9.22l-3.1,14.47c4.68-13.18,11.16-23.69,19.37-23.69,5.76,0,6.41,5.62,4.68,13.1l-3.89,16.78c-.29,1.22-.79,3.17.43,3.17.94,0,3.1-1.87,5.76-5.4l.36.29h0Z"/>
  <path class="st0" d="M163.38,47.56c-3.74,7.2-7.99,11.52-12.67,11.52-5.04,0-4.97-4.97-3.96-9.22l3.96-17.71c.65-2.95,1.3-6.26-.79-6.26-4.18,0-12.75,15.05-16.35,32.33h-10.01l9.86-46.73c.94-4.46.22-5.98-2.23-6.77l.07-.43,13.9-2.38h.29l-8.64,40.9c4.61-13.03,11.23-23.19,19.3-23.19,5.69,0,6.34,5.62,4.61,13.1l-3.89,16.78c-.29,1.22-.72,3.17.36,3.17,1.01,0,3.17-1.87,5.83-5.4,0,0,.36.29.36.29Z"/>
</svg>