<?xml version="1.0" encoding="UTF-8"?>
<svg id="Layer_1" data-name="Layer 1" xmlns="http://www.w3.org/2000/svg" viewBox="0 0 86.24 51.06">
  <defs>
    <style>
      .cls-1 {
        fill: #6e9777;
      }
    </style>
  </defs>
  <path class="cls-1" d="M5.95,8.27v4.78h.43c1.41-3.62,4.23-5.58,7.91-5.58s5.76,1.66,6.74,5.21h.49c1.59-3.25,4.47-5.15,7.97-5.15,2.82,0,5.39,1.41,6.56,3.55.86,1.59,1.16,3.56,1.16,6.93v24.76h-6.38v-22.92c0-4.05-1.41-6.01-4.29-6.01-1.59,0-3.13.86-3.92,2.27-.74,1.23-.98,2.51-.98,5.39v21.27h-6.19v-22.92c0-4.23-1.23-6.07-4.11-6.07-3.25,0-4.96,2.7-4.96,7.72v21.27H0V8.27h5.95Z"/>
  <path class="cls-1" d="M50.63,3.49c0,2.27-1.23,3.43-3.74,3.43-2.33,0-3.56-1.23-3.56-3.49s1.29-3.43,3.56-3.43c2.51,0,3.74,1.16,3.74,3.49ZM50.2,42.78h-6.38V8.52c1.04.55,1.72.74,3.06.74s2.08-.18,3.31-.74v34.26Z"/>
  <path class="cls-1" d="M54.18,8.27h6.87l2.45,6.19c.67,1.9,1.23,4.11,1.29,5.21h.37c0-.8.74-3.49,1.47-5.21l2.57-6.19h6.62l-7.66,17.04,7.66,17.47h-6.93l-2.7-6.93c-.74-2.27-1.1-3.92-1.23-5.33h-.31c-.25,1.96-.67,3.43-1.41,5.33l-2.88,6.93h-6.62l7.85-17.47-7.42-17.04Z"/>
  <path class="cls-1" d="M78.94,47.56c0-2.27,1.23-3.43,3.74-3.43,2.33,0,3.55,1.23,3.55,3.49s-1.29,3.43-3.55,3.43c-2.51,0-3.74-1.16-3.74-3.49ZM79.37,8.27h6.38v34.26c-1.04-.55-1.72-.74-3.06-.74s-2.08.18-3.31.74V8.27Z"/>
</svg>